<?xml version="1.0" encoding="UTF-8"?> <svg xmlns="http://www.w3.org/2000/svg" width="185" height="83" viewBox="0 0 185 83" fill="none"><path d="M161.537 15.8012C161.479 15.5493 161.401 15.2974 161.343 15.0454C161.207 14.5416 161.091 14.2315 160.994 14.0377C160.878 13.8246 160.8 13.7277 160.704 13.6114C160.626 13.4951 160.529 13.3982 160.413 13.2044C160.355 13.1076 160.297 12.9913 160.219 12.8169C160.161 12.6618 160.064 12.4681 159.967 12.2355C159.095 10.4139 157.971 8.68916 156.634 7.15823C155.277 5.6273 153.727 4.30953 152.041 3.26307C148.631 1.17015 144.774 0.104307 140.976 0.00741283C137.158 -0.0894817 133.36 0.76319 129.969 2.58481C128.283 3.49562 126.694 4.65835 125.318 6.03425C123.922 7.41016 122.74 8.99923 121.829 10.7239C122.857 9.05736 123.981 7.75898 125.201 6.59624C126.422 5.43351 127.74 4.40642 129.329 3.37934C129.387 3.47624 129.504 3.68941 130.317 3.24369C131.558 2.62357 132.895 2.06158 134.271 1.65462C135.647 1.26704 137.023 0.976358 138.34 0.860085C140.976 0.608159 143.301 0.956979 144.619 1.48021C144.832 1.55773 145.065 1.63524 145.297 1.75151C145.53 1.86779 145.801 1.98406 146.111 2.13909C146.421 2.27474 146.79 2.44916 147.235 2.64294C147.681 2.81735 148.204 3.06928 148.824 3.34059C148.398 3.16617 147.991 2.99176 147.565 2.81735C147.138 2.6817 146.712 2.52667 146.266 2.39102C146.228 2.50729 146.169 2.73984 146.169 2.73984C147.855 3.28245 149.696 4.1545 151.324 5.33661C152.971 6.49935 154.405 7.97214 155.433 9.44494C155.433 9.44494 155.239 9.59997 155.161 9.65811L155.433 10.0069C155.51 10.1232 155.588 10.2395 155.684 10.3751L156.169 11.1115C156.208 11.596 155.956 11.4216 155.471 10.8984C155.355 10.7627 155.219 10.6077 155.084 10.4333C154.929 10.2589 154.754 10.0844 154.58 9.87128C154.231 9.46432 153.785 9.03798 153.34 8.57289C152.39 7.66208 151.208 6.75127 150.006 6.03425C149.696 5.85984 149.406 5.66605 149.096 5.5304C148.786 5.37537 148.495 5.23972 148.204 5.10407C147.603 4.87152 147.061 4.63897 146.576 4.50332C146.538 4.61959 146.46 4.85214 146.441 4.96841C146.945 5.12344 147.429 5.35599 147.933 5.54978L147.913 5.58854C140.104 2.08096 129.794 4.58084 125.163 12.7587C124.601 13.7471 124.155 14.7935 123.825 15.8981C123.845 15.8206 123.845 15.7431 123.864 15.6849C123.922 15.3361 123.981 14.9873 124.058 14.6385C124.136 14.309 124.213 13.9796 124.291 13.6889C124.446 13.1076 124.601 12.6618 124.639 12.4487C124.853 11.8867 124.698 11.7898 124.31 12.003C124.116 12.0999 123.864 12.3324 123.574 12.6037C123.264 12.8944 122.953 13.2626 122.624 13.6889C122.45 13.9021 122.295 14.1346 122.14 14.3866C121.984 14.6385 121.81 14.8904 121.674 15.1617C121.384 15.7043 121.093 16.2857 120.861 16.8864C120.609 17.4678 120.454 18.0879 120.279 18.6499C120.144 19.2313 120.027 19.7739 119.969 20.239C119.833 21.1886 119.678 21.1886 119.523 20.956C119.368 20.7041 119.194 20.2002 119.02 20.2002C119.039 21.2079 119.02 21.9443 119.02 22.7001C119.02 23.0683 119.039 23.4559 119.078 23.8628C119.116 24.2698 119.194 24.7155 119.31 25.2C119.271 25.2 119.31 25.5876 119.446 26.1883C119.504 26.4984 119.582 26.8472 119.698 27.2542C119.814 27.6417 119.911 28.0875 120.085 28.5525C120.686 30.3742 121.81 32.4865 122.721 33.7073C122.721 33.7073 122.895 33.9011 123.302 34.3856C123.729 34.8701 124.368 35.6452 125.453 36.6917C126.19 37.3893 126.267 37.2731 126.345 37.1955C126.267 37.2924 126.267 37.2924 126.19 37.3699C126.635 37.6219 127.217 38.087 127.818 38.5327C128.418 38.9978 129.019 39.4047 129.484 39.6179C129.426 39.7148 129.426 39.7148 129.368 39.8311C131.209 40.6256 132.992 41.6527 134.949 42.0403C134.93 42.1565 134.93 42.1565 134.891 42.2728C135.375 42.3891 135.86 42.5054 136.228 42.6023C136.596 42.6991 136.829 42.7573 136.829 42.8154C136.809 42.9317 136.809 42.9317 136.79 43.048C137.778 43.3774 139.794 43.2418 139.794 43.4743C139.794 43.358 139.794 43.358 139.794 43.2224C141.79 43.2999 143.514 43.1255 145.104 42.8542C145.51 42.7767 145.898 42.6991 146.286 42.641C146.673 42.5441 147.041 42.4472 147.41 42.3503C147.603 42.2922 147.778 42.2534 147.972 42.1953C148.146 42.1372 148.34 42.079 148.514 42.0209C148.882 41.9046 149.231 41.769 149.599 41.6527C151.499 40.955 153.456 39.8892 155.239 38.397C157.022 36.9049 158.591 35.0251 159.773 32.9516C162.176 28.7657 163.145 23.7853 162.641 19.0956C162.525 18.0492 162.157 17.0609 162.06 18.1073C162.021 17.6035 161.905 17.0996 161.808 16.5764L161.537 15.8012Z" fill="#F8E5D7"></path><path d="M17.9178 43.8037C14.1777 43.8037 11.0383 43.2029 8.53839 41.9821C6.01914 40.7612 4.13938 39.2109 2.87975 37.3117C1.62012 35.4126 1 33.436 1 31.3624C1 29.2889 1.62012 27.2928 2.87975 25.3937C4.13938 23.4752 6.01914 21.9249 8.53839 20.7234C11.0577 19.5219 14.1777 18.9212 17.9178 18.9212C20.5921 18.9212 22.685 19.8513 24.1772 21.7311C24.1772 17.2933 23.6346 13.9214 22.5687 11.6153C21.5998 9.58052 20.689 8.57282 19.8363 8.57282V8.14648H36.6766V31.1299C36.6766 34.6568 37.1804 37.4861 38.2075 39.5984C39.2152 41.7108 40.1648 42.7766 41.0174 42.7766V43.1448H24.1772V41.0131C22.6656 42.8735 20.5921 43.8037 17.9178 43.8037ZM17.9178 43.1448C19.3131 43.1448 20.4758 42.5828 21.406 41.4394C22.3362 40.2961 23.0338 38.8233 23.4989 37.0211C23.9446 35.2188 24.1772 33.3197 24.1772 31.3237C24.1772 29.3664 23.9446 27.4866 23.4989 25.6844C23.0532 23.8822 22.3556 22.4094 21.406 21.266C20.4758 20.1226 19.3131 19.5607 17.9178 19.5607C16.4644 19.5607 15.3791 20.7815 14.6234 23.2427C13.8676 25.7038 13.4994 28.3974 13.4994 31.3237C13.4994 34.2886 13.8676 37.0017 14.6234 39.4628C15.3791 41.9045 16.4644 43.1448 17.9178 43.1448Z" fill="#F15B27" stroke="#D1652A" stroke-width="0.806606" stroke-miterlimit="10"></path><path d="M41.7344 43.1448V42.7766C42.587 42.7766 43.4979 41.7495 44.4668 39.6953C45.4357 37.6412 45.959 34.87 46.0753 31.3818C45.959 27.8548 45.4357 25.0643 44.4668 23.0295C43.4979 20.9947 42.587 19.987 41.7344 19.987V19.5607H58.5746C58.6134 27.4285 58.6715 35.2963 58.7103 43.1642C53.0517 43.1448 47.393 43.1448 41.7344 43.1448ZM52.3346 17.8359C50.5712 17.8359 49.079 17.3708 47.8387 16.4407C46.5985 15.5105 45.9977 14.3671 45.9977 13.03C45.9977 11.6928 46.6179 10.5495 47.8387 9.58052C49.0596 8.63096 50.5712 8.14648 52.3346 8.14648C54.0981 8.14648 55.5903 8.63096 56.8305 9.58052C58.0514 10.5301 58.6715 11.6928 58.6715 13.03C58.6715 14.3671 58.0514 15.5105 56.8305 16.4407C55.5903 17.3708 54.0981 17.8359 52.3346 17.8359Z" fill="#F15B27" stroke="#D1652A" stroke-width="0.806606" stroke-miterlimit="10"></path><path d="M80.7436 43.4745H59.5625V43.1063C60.4152 43.1063 61.326 42.0792 62.2949 40.025C63.2639 37.9709 63.7871 35.1997 63.9034 31.7115C63.7871 28.1845 63.2639 25.3939 62.2949 23.3592C61.326 21.3244 60.4152 20.3167 59.5625 20.3167V19.8903H76.4028V21.3631C78.3213 19.9485 80.4336 19.2314 82.7397 19.2314C85.0458 19.2314 87.1193 19.9097 88.9991 21.2662C90.8788 22.6228 91.809 24.6575 91.809 27.3318C91.809 29.2503 91.1889 30.6844 89.968 31.6339C88.7278 32.5835 87.3712 33.068 85.8791 33.068C84.3869 33.068 83.011 32.5835 81.7901 31.6339C80.5499 30.6844 79.9491 29.2116 79.9491 27.2156C79.9491 25.2195 79.7553 23.7274 79.3871 22.7003C79.0189 21.6926 78.612 21.1693 78.1856 21.1693C77.7593 21.1693 77.3523 21.6732 76.9841 22.7003C76.6159 23.708 76.4222 25.2583 76.4222 27.3318V31.4789C76.4222 35.0059 76.926 37.8352 77.9531 39.9475C78.9608 42.0598 79.9104 43.1256 80.763 43.1256V43.4745H80.7436Z" fill="#F15B27" stroke="#D1652A" stroke-width="0.806606" stroke-miterlimit="10"></path><path d="M39.8358 81.8839C36.0956 81.8839 32.9562 81.2638 30.4564 80.0429C27.9371 78.822 26.0574 77.2717 24.7977 75.3726C23.5381 73.4735 22.918 71.4968 22.918 69.4233C22.918 67.3497 23.5575 65.3537 24.8171 63.4546C26.0767 61.536 27.9565 59.9857 30.4757 58.8036C32.995 57.6021 36.115 57.0014 39.8551 57.0208C42.5294 57.0208 44.6223 57.9703 46.1145 59.8307C46.1145 55.3929 45.5913 52.021 44.5255 49.7149C43.5565 47.6801 42.6651 46.6724 41.793 46.6724V46.2461L58.6333 46.2655L58.6139 69.2489C58.6139 72.7758 59.1178 75.6051 60.1255 77.7174C61.1332 79.8297 62.0827 80.8956 62.9354 80.8956V81.2638L46.0951 81.2444V79.1127C44.603 80.9537 42.51 81.8839 39.8358 81.8839ZM39.8358 81.2056C41.231 81.2056 42.3938 80.6437 43.324 79.5003C44.2541 78.3569 44.9518 76.8841 45.4169 75.0819C45.882 73.2797 46.0951 71.3805 46.0951 69.3845C46.0951 67.4272 45.8626 65.5475 45.4169 63.7452C44.9712 61.943 44.2735 60.4702 43.3433 59.3269C42.4131 58.1835 41.2504 57.6215 39.8551 57.6215C38.4017 57.6215 37.3165 58.8424 36.5607 61.3035C35.8049 63.7646 35.4367 66.4583 35.4367 69.3845C35.4367 72.3495 35.8049 75.0625 36.5607 77.5236C37.2971 79.9848 38.4017 81.2056 39.8358 81.2056Z" fill="#F15B27" stroke="#D1652A" stroke-width="0.806606" stroke-miterlimit="10"></path><path d="M75.0467 81.9222C71.8298 81.9222 69.1555 81.3021 66.9851 80.0812C64.8146 78.8603 63.2062 77.31 62.1404 75.4109C61.0745 73.5117 60.5319 71.5351 60.5513 69.4615C60.5513 67.388 61.0939 65.392 62.1597 63.4928C63.2256 61.5743 64.8534 60.024 67.0238 58.8419C69.1943 57.6404 71.8879 57.0397 75.0855 57.059C78.7675 57.059 81.965 57.8536 84.678 59.4233C87.3717 60.993 88.7282 62.8921 88.7282 65.1207L73.3995 65.1013C73.5545 66.4772 73.9227 67.795 74.4847 69.0352C75.0467 70.2755 75.88 71.2832 76.9652 72.0777C78.0698 72.8722 79.4845 73.2598 81.248 73.2792C83.2827 73.2792 85.7632 72.6397 88.7088 71.3413L88.4763 72.4459C88.3213 73.1435 87.9918 74.0156 87.5073 75.0621C87.0229 76.1279 86.2865 77.1744 85.2982 78.2208C84.3098 79.2867 82.9921 80.1587 81.3255 80.8757C79.6589 81.5734 77.566 81.9222 75.0467 81.9222ZM76.8296 64.423C76.7714 62.4658 76.5776 60.8573 76.2288 59.5783C75.88 58.2993 75.473 57.6598 74.9886 57.6598C74.5622 57.6598 74.1747 58.2218 73.8258 59.3651C73.477 60.5085 73.3026 61.8263 73.3026 63.3184V64.423H76.8296Z" fill="#F15B27" stroke="#D1652A" stroke-width="0.806606" stroke-miterlimit="10"></path><path d="M103.012 81.9417C99.7947 81.9417 97.1204 81.3216 94.9499 80.1007C92.7795 78.8798 91.171 77.3295 90.1052 75.4304C89.0394 73.5313 88.4967 71.5546 88.5161 69.4811C88.5161 67.4075 89.0587 65.4115 90.1246 63.5124C91.1904 61.5939 92.8182 60.0436 94.9887 58.8614C97.1591 57.6599 99.8528 57.0592 103.05 57.0786C106.732 57.0786 109.93 57.8731 112.643 59.4428C115.337 61.0125 116.693 62.9116 116.693 65.1402L101.364 65.1208C101.519 66.4967 101.888 67.8145 102.45 69.0547C103.012 70.295 103.845 71.3027 104.93 72.0972C106.035 72.8918 107.449 73.2793 109.213 73.2987C111.248 73.2987 113.728 72.6592 116.674 71.3608L116.441 72.4654C116.286 73.1631 115.957 74.0351 115.472 75.0816C114.988 76.1474 114.251 77.1939 113.263 78.2403C112.275 79.3062 110.957 80.1782 109.29 80.8953C107.624 81.5929 105.531 81.9417 103.012 81.9417ZM104.794 64.4426C104.736 62.4853 104.542 60.8768 104.194 59.5978C103.845 58.3188 103.438 57.6793 102.953 57.6793C102.527 57.6793 102.139 58.2413 101.791 59.3847C101.442 60.528 101.267 61.8458 101.267 63.338V64.4426H104.794Z" fill="#F15B27" stroke="#D1652A" stroke-width="0.806606" stroke-miterlimit="10"></path><path d="M133.398 81.9611C129.658 81.9611 126.519 81.3409 124.019 80.1201C121.5 78.8992 119.62 77.3489 118.36 75.4497C117.101 73.5506 116.48 71.574 116.48 69.5004C116.48 67.4269 117.12 65.4308 118.38 63.5317C119.639 61.6132 121.519 60.0629 124.038 58.8808C126.557 57.6793 129.677 57.0785 133.418 57.0979C136.092 57.0979 138.185 58.0475 139.677 59.9079C139.677 55.4701 139.154 52.0982 138.088 49.7921C137.119 47.7573 136.228 46.7496 135.356 46.7496V46.3232L152.196 46.3426L152.176 69.326C152.176 72.853 152.68 75.6823 153.688 77.7946C154.696 79.9069 155.645 80.9727 156.498 80.9727V81.3409L139.658 81.3216V79.1899C138.146 81.0309 136.073 81.9804 133.398 81.9611ZM133.398 81.3022C134.794 81.3022 135.956 80.7402 136.886 79.5968C137.817 78.4535 138.514 76.9807 138.979 75.1784C139.444 73.3762 139.658 71.4771 139.658 69.481C139.658 67.5238 139.425 65.644 138.979 63.8418C138.534 62.0395 137.836 60.5667 136.906 59.4234C135.976 58.28 134.813 57.718 133.418 57.718C131.964 57.718 130.879 58.9389 130.123 61.4C129.367 63.8612 128.999 66.5548 128.999 69.481C128.999 72.446 129.367 75.1591 130.123 77.6202C130.86 80.0619 131.945 81.3022 133.398 81.3022Z" fill="#F15B27" stroke="#D1652A" stroke-width="0.806606" stroke-miterlimit="10"></path><path d="M169.579 81.9997C167.059 81.9997 164.676 81.7478 162.447 81.2633C160.199 80.7788 158.358 80.0424 156.905 79.0929C155.471 78.1433 154.734 76.9418 154.734 75.5271C154.734 74.19 155.393 73.1823 156.711 72.5428C158.029 71.9033 159.443 71.5738 161.013 71.5738C162.563 71.5738 163.997 71.9033 165.296 72.5622C166.614 73.2211 167.253 74.2094 167.253 75.5465C167.253 77.6201 167.718 79.1122 168.648 80.0037C169.579 80.8951 170.567 81.3408 171.575 81.3408C172.544 81.3408 173.377 81.0501 174.094 80.4688C174.811 79.8874 175.179 79.0929 175.179 78.1239C175.179 76.7868 174.346 75.6822 172.66 74.8295C170.974 73.9768 168.978 73.1629 166.691 72.3878C164.87 71.7289 163.087 71.0312 161.362 70.2561C159.618 69.4809 158.184 68.5507 157.04 67.4849C155.897 66.3997 155.316 65.0625 155.316 63.4347C155.316 62.02 156.013 60.8379 157.409 59.9077C158.804 58.9776 160.587 58.2799 162.738 57.8148C164.908 57.3497 167.195 57.1172 169.598 57.1172C171.943 57.1172 174.21 57.3497 176.381 57.8342C178.551 58.2993 180.315 59.0163 181.71 59.9465C183.105 60.8767 183.803 62.0588 183.783 63.4928C183.783 64.8687 183.124 65.9152 181.807 66.5935C180.489 67.2911 179.055 67.6206 177.505 67.6206C175.896 67.6206 174.443 67.2717 173.125 66.5741C171.807 65.8765 171.168 64.8494 171.168 63.4541C171.168 61.4193 170.819 59.9853 170.082 59.1326C169.365 58.2799 168.59 57.8536 167.796 57.8536C167.098 57.8536 166.478 58.1249 165.955 58.6481C165.412 59.1714 165.16 59.8884 165.141 60.7798C165.141 62.0782 165.587 63.1634 166.497 64.0161C167.408 64.8687 168.552 65.5858 169.947 66.1865C171.342 66.7679 172.854 67.3299 174.481 67.8725C176.109 68.3957 177.679 68.9965 179.171 69.636C180.663 70.2948 181.904 71.0894 182.853 72.0196C183.822 72.9498 184.287 74.1512 184.287 75.624C184.287 77.0387 183.57 78.2402 182.117 79.1898C180.663 80.1393 178.822 80.8563 176.574 81.3408C174.385 81.7672 172.02 81.9997 169.579 81.9997Z" fill="#F15B27" stroke="#D1652A" stroke-width="0.806606" stroke-miterlimit="10"></path><path d="M102.777 44.637C100.916 44.637 99.1335 44.3269 97.4282 43.6874C95.7229 43.0673 94.3276 42.0402 93.2424 40.6256C92.1571 39.2109 91.5952 37.3893 91.5952 35.1413V13.8827H89.2891V13.185H91.5952V9.01855H102.564V13.185H104.579V13.902H102.544V35.1607C102.544 38.2032 102.622 40.4124 102.796 41.827C102.951 43.2417 103.126 43.9394 103.319 43.9394C103.649 43.9394 103.862 42.0984 103.94 38.4164C103.94 36.9436 104.443 35.839 105.451 35.1026C106.459 34.3662 107.544 33.998 108.707 33.998C109.908 33.998 111.013 34.3662 111.982 35.1026C112.951 35.839 113.455 36.9436 113.455 38.4164C113.455 40.2767 112.35 41.7883 110.141 42.9316C107.932 44.075 105.47 44.637 102.777 44.637Z" fill="#F15B27" stroke="#D1652A" stroke-width="0.806606" stroke-miterlimit="10"></path><path d="M110.684 55.5088C109.347 55.5088 108.223 54.9468 107.312 53.8422C106.382 52.7182 105.936 51.633 105.936 50.5671C105.936 49.1137 106.402 48.0091 107.312 47.2921C108.243 46.5557 109.25 46.2069 110.374 46.2069C111.44 46.2069 112.448 46.5751 113.359 47.2921C114.289 48.0285 114.734 49.1137 114.734 50.5671C114.734 51.3423 114.812 51.7686 114.986 51.8461C115.413 51.8461 116.459 49.4625 118.145 44.7147L113.707 32.506C112.293 28.7271 110.801 25.7621 109.231 23.5723C107.661 21.3825 106.518 20.2973 105.801 20.2973V19.8516H122.777V20.2973C122.137 20.2973 121.788 21.2468 121.75 23.1266C121.75 24.9288 122.215 27.4675 123.164 30.7813C124.153 27.4481 124.637 24.8513 124.637 23.0103C124.637 21.305 124.288 20.3942 123.61 20.3167V19.8709H131.187V20.3167C130.509 20.3167 129.366 21.4019 127.776 23.5917C126.187 25.7815 124.695 28.7659 123.281 32.5254L117.874 47.3696C115.878 52.7763 113.475 55.5088 110.684 55.5088Z" fill="#F15B27" stroke="#D1652A" stroke-width="0.806606" stroke-miterlimit="10"></path></svg> 