<?xml version="1.0" encoding="utf-8"?>
<!-- Generator: Adobe Illustrator 23.0.2, SVG Export Plug-In . SVG Version: 6.00 Build 0)  -->
<svg version="1.1" id="Layer_1" xmlns="http://www.w3.org/2000/svg" xmlns:xlink="http://www.w3.org/1999/xlink" x="0px" y="0px"
	 viewBox="0 0 328.8 112.9" style="enable-background:new 0 0 328.8 112.9;" xml:space="preserve">
<style type="text/css">
	.st0{fill:#333333;}
</style>
<g>
	<g>
		<path class="st0" d="M22.1,29.5h6.3l15,17.3l14.7-17.3h6.3v43.4h-5.7V38.5l-15.4,17l-15.5-17V73h-5.7C22.1,73,22.1,29.5,22.1,29.5
			z"/>
		<path class="st0" d="M92.6,66.7c-4-4.2-6.1-9.5-6.1-15.7s2-11.6,6.1-15.7c4.1-4.3,9.5-6.5,16-6.5c6.4,0,11.7,2.2,15.9,6.5
			c4,4.1,6.1,9.5,6.1,15.7s-2.1,11.5-6.1,15.7c-4.1,4.3-9.5,6.5-15.9,6.5C102.1,73.2,96.7,71,92.6,66.7z M120.5,62.8
			c2.9-3,4.4-7,4.4-11.8s-1.5-8.8-4.4-11.8c-3-3.2-7-4.8-11.9-4.8s-8.9,1.6-12,4.8c-2.9,3-4.3,7-4.3,11.8s1.5,8.8,4.3,11.8
			c3,3.2,7.1,4.8,12,4.8S117.4,66,120.5,62.8z"/>
		<path class="st0" d="M150.4,67.4h26.4V54h-19.2v-5.6h19.2V35.1h-26.4v-5.6h32.1v43.4h-32.1V67.4z M166.7,15.7h8.1l-7.7,7.5h-4.8
			L166.7,15.7z"/>
		<path class="st0" d="M207.1,29.5h5.7v18.9h23.8V29.5h5.7v43.4h-5.7V54h-23.8v18.9h-5.7V29.5z"/>
		<path class="st0" d="M280.9,29.5h6.7L306,72.9h-6.3l-5.2-12.3h-20.4l-5.3,12.3h-6.3L280.9,29.5z M292.2,55.3l-8-19.1l-8,19.1
			C276.2,55.3,292.2,55.3,292.2,55.3z"/>
	</g>
	<g>
		<path class="st0" d="M23.8,96.3c0,0.4,0,0.7,0.2,0.9c0.2,0.2,0.5,0.3,0.9,0.3s0.8-0.1,1.4-0.2l0.1,0.2c-0.2,0.1-0.5,0.2-0.7,0.2
			c-0.3,0.1-0.5,0.1-0.8,0.1c-0.2,0-0.4,0-0.5-0.1c-0.2,0-0.3-0.1-0.5-0.2c-0.1-0.1-0.2-0.3-0.3-0.4c-0.1-0.2-0.1-0.4-0.1-0.7V91h-1
			v-0.2l1-0.2l0.1-1.2h0.2v1.3h2V91h-2C23.8,91,23.8,96.3,23.8,96.3z"/>
		<path class="st0" d="M37.4,91.5c0.5-0.3,1-0.5,1.5-0.6s0.9-0.2,1.2-0.2c0.5,0,0.8,0.1,1.1,0.2s0.4,0.3,0.6,0.5
			c0.1,0.2,0.2,0.4,0.2,0.7c0,0.2,0,0.5,0,0.7v5.1h-0.4V93c0-0.3,0-0.6-0.1-0.8c0-0.2-0.1-0.4-0.2-0.6c-0.1-0.2-0.3-0.3-0.5-0.4
			C40.7,91,40.4,91,40.1,91c-0.2,0-0.4,0-0.7,0.1c-0.2,0.1-0.5,0.1-0.7,0.2s-0.5,0.2-0.7,0.3s-0.4,0.2-0.6,0.3v6H37V87.5h0.4v2
			c0,0.3,0,0.7,0,1S37.4,91.1,37.4,91.5L37.4,91.5z"/>
		<path class="st0" d="M54.4,89c0,0.1,0,0.2-0.1,0.2c-0.1,0.1-0.2,0.1-0.3,0.1s-0.2,0-0.2-0.1c-0.1-0.1-0.1-0.2-0.1-0.2
			c0-0.1,0-0.2,0.1-0.3c0.1-0.1,0.1-0.1,0.2-0.1c0.1,0,0.2,0,0.3,0.1C54.3,88.8,54.4,88.8,54.4,89z M53.8,97.8v-7.1h0.3v7.1H53.8z"
			/>
		<path class="st0" d="M66.5,91.5c0.5-0.3,1-0.5,1.5-0.6s0.9-0.2,1.2-0.2c0.4,0,0.8,0.1,1,0.2s0.4,0.3,0.6,0.5
			c0.1,0.2,0.2,0.4,0.2,0.6s0,0.4,0,0.7V98h-0.4v-5c0-0.3,0-0.6,0-0.8c0-0.2-0.1-0.5-0.2-0.6c-0.1-0.2-0.2-0.3-0.5-0.4
			C69.8,91,69.5,91,69.2,91c-0.2,0-0.4,0-0.7,0.1c-0.2,0.1-0.5,0.1-0.7,0.2s-0.5,0.2-0.7,0.3c-0.2,0.1-0.4,0.2-0.6,0.3v6h-0.4v-7.1
			h0.4c0,0.1,0,0.2,0,0.4C66.4,91.2,66.4,91.3,66.5,91.5L66.5,91.5z"/>
		<path class="st0" d="M87,91.2c0.3,0.2,0.5,0.5,0.6,0.8s0.2,0.7,0.2,1c0,0.7-0.2,1.3-0.7,1.7c-0.5,0.4-1.2,0.6-2,0.6h-0.9
			c-0.2,0-0.4,0-0.6,0s-0.3,0-0.5,0.1c-0.1,0.1-0.2,0.1-0.3,0.2s-0.1,0.2-0.1,0.4c0,0.4,0.3,0.7,1,0.7h2c0.9,0,1.5,0.2,1.9,0.5
			c0.4,0.4,0.5,0.8,0.5,1.4c0,0.4-0.1,0.7-0.2,1s-0.4,0.5-0.7,0.7c-0.3,0.2-0.6,0.3-1,0.4s-0.8,0.2-1.2,0.2c-0.5,0-1-0.1-1.3-0.2
			s-0.6-0.3-0.9-0.5c-0.2-0.2-0.4-0.4-0.5-0.7c-0.1-0.3-0.1-0.5-0.1-0.8c0-0.4,0.1-0.8,0.3-1.2s0.4-0.6,0.7-0.8
			c-0.3,0-0.6-0.1-0.7-0.3c-0.1-0.2-0.2-0.4-0.2-0.6s0-0.4,0.1-0.5s0.2-0.2,0.3-0.3c0.1-0.1,0.3-0.1,0.5-0.2c0.2,0,0.3-0.1,0.5-0.1
			l0,0c-0.3-0.1-0.6-0.4-0.8-0.7c-0.2-0.4-0.3-0.8-0.3-1.3c0-0.4,0.1-0.8,0.2-1.1c0.2-0.3,0.3-0.5,0.6-0.7c0.2-0.2,0.5-0.3,0.8-0.4
			s0.6-0.1,0.9-0.1c0.2,0,0.4,0,0.6,0s0.4,0.1,0.6,0.1h2.1v0.3L87,91.2L87,91.2z M83.8,97.1c-0.4,0.2-0.7,0.4-0.9,0.8
			c-0.2,0.4-0.3,0.7-0.3,1c0,0.2,0,0.5,0.1,0.7s0.2,0.4,0.4,0.6c0.2,0.2,0.4,0.3,0.8,0.4s0.7,0.2,1.2,0.2c0.4,0,0.7,0,1-0.1
			s0.6-0.2,0.8-0.4c0.2-0.2,0.4-0.4,0.6-0.6c0.1-0.2,0.2-0.5,0.2-0.8c0-0.2,0-0.4-0.1-0.6c0-0.2-0.1-0.4-0.3-0.5
			c-0.1-0.2-0.4-0.3-0.6-0.4c-0.3-0.1-0.6-0.2-1.1-0.2L83.8,97.1L83.8,97.1z M87.5,93c0-0.2,0-0.4-0.1-0.7c-0.1-0.2-0.2-0.5-0.4-0.7
			c-0.2-0.2-0.4-0.4-0.7-0.5C86,91,85.6,91,85.2,91c-0.7,0-1.3,0.2-1.6,0.6C83.2,92,83,92.5,83,93.1c0,0.3,0.1,0.6,0.2,0.8
			c0.1,0.2,0.2,0.5,0.4,0.6c0.2,0.2,0.4,0.3,0.6,0.4S84.7,95,85,95c0.7,0,1.3-0.2,1.8-0.5C87.2,94.2,87.5,93.7,87.5,93z"/>
		<path class="st0" d="M101.6,90.7c0.2,0,0.5,0,0.8,0.1s0.7,0.1,1,0.3l-0.1,0.3c-0.3-0.1-0.6-0.2-0.9-0.3c-0.3-0.1-0.6-0.1-0.8-0.1
			c-0.5,0-1,0.1-1.3,0.4s-0.5,0.5-0.5,1.1c0,0.2,0.1,0.4,0.2,0.6s0.3,0.3,0.4,0.4c0.2,0.1,0.4,0.2,0.6,0.3s0.4,0.2,0.6,0.2
			c0.3,0.1,0.6,0.2,0.9,0.3s0.5,0.2,0.7,0.4s0.4,0.3,0.5,0.6c0.1,0.2,0.2,0.5,0.2,0.8s-0.1,0.6-0.2,0.9c-0.1,0.2-0.3,0.4-0.5,0.6
			s-0.5,0.3-0.8,0.3s-0.6,0.1-0.9,0.1c-0.4,0-0.8,0-1.2-0.1c-0.4-0.1-0.7-0.2-1-0.4l0.1-0.3c0.4,0.2,0.7,0.3,1.1,0.4
			s0.6,0.1,0.9,0.1s0.6,0,0.8-0.1c0.3-0.1,0.5-0.2,0.7-0.3c0.2-0.1,0.3-0.3,0.5-0.5c0.1-0.2,0.2-0.4,0.2-0.7c0-0.2-0.1-0.4-0.2-0.6
			s-0.3-0.3-0.4-0.5s-0.4-0.2-0.6-0.3s-0.5-0.2-0.7-0.3c-0.3-0.1-0.6-0.2-0.8-0.3s-0.5-0.2-0.7-0.4c-0.2-0.2-0.4-0.3-0.5-0.5
			s-0.2-0.4-0.2-0.7c0-0.3,0.1-0.6,0.2-0.8c0.1-0.2,0.3-0.4,0.5-0.5s0.4-0.2,0.7-0.3C101,90.7,101.3,90.7,101.6,90.7z"/>
		<path class="st0" d="M132.9,96.9c-0.3,0.2-0.6,0.4-0.9,0.6c-0.3,0.1-0.5,0.2-0.7,0.3c-0.2,0.1-0.4,0.1-0.6,0.1s-0.3,0-0.4,0
			c-0.4,0-0.7-0.1-0.9-0.2s-0.4-0.3-0.6-0.5s-0.2-0.4-0.3-0.6s-0.1-0.4-0.1-0.7c0-0.3,0.1-0.6,0.2-0.9c0.1-0.2,0.3-0.5,0.5-0.6
			c0.2-0.2,0.5-0.3,0.8-0.4s0.6-0.1,0.9-0.2l2.2-0.1V93c0-0.4,0-0.7-0.1-1s-0.1-0.5-0.3-0.7c-0.1-0.2-0.3-0.3-0.5-0.4
			s-0.5-0.1-0.9-0.1s-0.7,0-1.1,0.1c-0.4,0.1-0.8,0.2-1.1,0.3l-0.1-0.3c0.4-0.2,0.8-0.3,1.2-0.4s0.8-0.1,1.2-0.1
			c0.7,0,1.2,0.2,1.5,0.5s0.5,0.9,0.5,1.7v4.5h1v0.2c-0.2,0.1-0.3,0.1-0.5,0.1s-0.3,0-0.4,0c-0.2,0-0.3,0-0.4-0.1
			C132.9,97.2,132.9,97.1,132.9,96.9L132.9,96.9L132.9,96.9z M130.7,94.3c-0.6,0-1.1,0.2-1.5,0.5c-0.3,0.3-0.5,0.7-0.5,1.2
			c0,0.6,0.1,1,0.4,1.2c0.3,0.3,0.7,0.4,1.3,0.4c0.4,0,0.8-0.1,1.2-0.3c0.4-0.2,0.8-0.5,1.3-0.8v-2.3L130.7,94.3z"/>
		<path class="st0" d="M146,91.7c0.1-0.1,0.3-0.2,0.5-0.3c0.2-0.1,0.4-0.2,0.6-0.3c0.2-0.1,0.4-0.2,0.6-0.3s0.4-0.1,0.5-0.1h0.1
			l0.1,0.1c0,0,0,0.1,0,0.2s0,0.1-0.1,0.2l-2.2,0.7v6h-0.4v-7.1h0.4c0,0.2,0,0.3,0,0.5S146,91.5,146,91.7L146,91.7z"/>
		<path class="st0" d="M161.8,90.7c0.4,0,0.8,0.1,1.1,0.2s0.5,0.3,0.7,0.5s0.3,0.5,0.4,0.7c0.1,0.3,0.2,0.5,0.2,0.8s0.1,0.5,0.1,0.7
			s0,0.4,0,0.5v0.2h-5c0,0.4,0,0.9,0.1,1.3s0.2,0.8,0.4,1.1s0.4,0.5,0.7,0.7s0.7,0.3,1.2,0.3c0.4,0,0.8,0,1.2-0.1
			c0.3-0.1,0.7-0.2,1.1-0.4l0.1,0.3c-0.4,0.2-0.8,0.4-1.1,0.5c-0.4,0.1-0.8,0.1-1.2,0.1c-0.6,0-1-0.1-1.4-0.3
			c-0.4-0.2-0.7-0.4-0.9-0.8c-0.2-0.3-0.4-0.7-0.4-1.1c-0.1-0.4-0.1-0.9-0.1-1.4c0-0.2,0-0.4,0-0.6s0.1-0.5,0.1-0.8
			c0.1-0.3,0.2-0.5,0.3-0.8s0.3-0.5,0.5-0.7s0.5-0.4,0.8-0.5S161.4,90.7,161.8,90.7z M161.8,91c-0.4,0-0.8,0.1-1.1,0.3
			c-0.3,0.2-0.5,0.4-0.7,0.7s-0.3,0.6-0.4,1s-0.2,0.7-0.2,1.1h4.6c0-0.4,0-0.8-0.1-1.2s-0.2-0.7-0.4-0.9c-0.2-0.3-0.4-0.5-0.7-0.6
			S162.2,91,161.8,91z"/>
		<path class="st0" d="M189.4,94.4c0,0.4,0,0.8,0.1,1.2s0.2,0.7,0.4,1s0.4,0.5,0.7,0.7s0.7,0.3,1.2,0.3c0.4,0,0.8,0,1.1-0.1
			s0.7-0.2,1.1-0.4l0.1,0.3c-0.3,0.2-0.6,0.3-1,0.4s-0.8,0.2-1.2,0.2c-0.5,0-1-0.1-1.3-0.3c-0.4-0.2-0.6-0.4-0.9-0.7
			c-0.2-0.3-0.4-0.7-0.5-1.1s-0.1-0.9-0.1-1.4c0-0.4,0-0.7,0.1-1.2c0.1-0.4,0.2-0.8,0.4-1.2c0.2-0.4,0.5-0.7,0.9-1s0.9-0.4,1.5-0.4
			c0.4,0,0.7,0,1.1,0.1c0.3,0.1,0.6,0.2,0.9,0.3l-0.1,0.3c-0.4-0.1-0.7-0.2-1-0.3s-0.6-0.1-0.8-0.1c-0.4,0-0.8,0.1-1.2,0.2
			s-0.6,0.4-0.8,0.7c-0.2,0.3-0.4,0.7-0.5,1.1C189.4,93.5,189.4,93.9,189.4,94.4z"/>
		<path class="st0" d="M205.6,91.5c0.5-0.3,1-0.5,1.5-0.6s0.9-0.2,1.2-0.2c0.5,0,0.8,0.1,1.1,0.2s0.4,0.3,0.6,0.5
			c0.1,0.2,0.2,0.4,0.2,0.7c0,0.2,0,0.5,0,0.7v5.1h-0.4V93c0-0.3,0-0.6-0.1-0.8c0-0.2-0.1-0.4-0.2-0.6c-0.1-0.2-0.3-0.3-0.5-0.4
			s-0.5-0.1-0.8-0.1c-0.2,0-0.4,0-0.7,0.1c-0.2,0.1-0.5,0.1-0.7,0.2s-0.5,0.2-0.7,0.3c-0.2,0.1-0.4,0.2-0.6,0.3v6h-0.4V87.5h0.4v2
			c0,0.3,0,0.7,0,1S205.6,91.1,205.6,91.5L205.6,91.5z"/>
		<path class="st0" d="M226,96.9c-0.3,0.2-0.6,0.4-0.9,0.6c-0.3,0.1-0.5,0.2-0.7,0.3c-0.2,0.1-0.4,0.1-0.6,0.1s-0.3,0-0.4,0
			c-0.4,0-0.7-0.1-0.9-0.2s-0.4-0.3-0.6-0.5c-0.1-0.2-0.2-0.4-0.3-0.6s-0.1-0.4-0.1-0.7c0-0.3,0.1-0.6,0.2-0.9s0.3-0.5,0.5-0.6
			c0.2-0.2,0.5-0.3,0.8-0.4s0.6-0.1,0.9-0.2l2.2-0.1V93c0-0.4,0-0.7-0.1-1s-0.1-0.5-0.3-0.7c-0.1-0.2-0.3-0.3-0.5-0.4
			s-0.5-0.1-0.9-0.1s-0.7,0-1.1,0.1c-0.4,0.1-0.8,0.2-1.1,0.3l-0.1-0.3c0.4-0.2,0.8-0.3,1.2-0.4s0.8-0.1,1.2-0.1
			c0.7,0,1.2,0.2,1.5,0.5s0.5,0.9,0.5,1.7v4.5h1v0.2c-0.2,0.1-0.3,0.1-0.5,0.1s-0.3,0-0.4,0c-0.2,0-0.3,0-0.4-0.1S226,97.1,226,96.9
			L226,96.9L226,96.9z M223.8,94.3c-0.6,0-1.1,0.2-1.5,0.5c-0.3,0.3-0.5,0.7-0.5,1.2c0,0.6,0.1,1,0.4,1.2c0.3,0.3,0.7,0.4,1.3,0.4
			c0.4,0,0.8-0.1,1.2-0.3c0.4-0.2,0.8-0.5,1.3-0.8v-2.3L223.8,94.3z"/>
		<path class="st0" d="M238.9,91.5c0.5-0.3,1-0.5,1.5-0.6s0.9-0.2,1.2-0.2c0.4,0,0.8,0.1,1,0.2s0.4,0.3,0.6,0.5
			c0.1,0.2,0.2,0.4,0.2,0.6s0,0.4,0,0.7V98H243v-5c0-0.3,0-0.6,0-0.8s-0.1-0.5-0.2-0.6c-0.1-0.2-0.2-0.3-0.5-0.4
			c-0.2-0.1-0.5-0.1-0.9-0.1c-0.2,0-0.4,0-0.7,0.1c-0.2,0.1-0.5,0.1-0.7,0.2s-0.5,0.2-0.7,0.3c-0.2,0.1-0.4,0.2-0.6,0.3v6h-0.4v-7.1
			h0.4c0,0.1,0,0.2,0,0.4C238.9,91.2,238.9,91.3,238.9,91.5L238.9,91.5z"/>
		<path class="st0" d="M259.4,91.2c0.3,0.2,0.5,0.5,0.6,0.8s0.2,0.7,0.2,1c0,0.7-0.2,1.3-0.7,1.7c-0.5,0.4-1.2,0.6-2,0.6h-0.9
			c-0.2,0-0.4,0-0.6,0c-0.2,0-0.3,0-0.5,0.1c-0.1,0.1-0.2,0.1-0.3,0.2s-0.1,0.2-0.1,0.4c0,0.4,0.3,0.7,1,0.7h2
			c0.9,0,1.5,0.2,1.9,0.5s0.5,0.8,0.5,1.4c0,0.4-0.1,0.7-0.2,1s-0.4,0.5-0.7,0.7c-0.3,0.2-0.6,0.3-1,0.4s-0.8,0.2-1.2,0.2
			c-0.5,0-1-0.1-1.3-0.2c-0.4-0.1-0.6-0.3-0.9-0.5c-0.2-0.2-0.4-0.4-0.5-0.7c-0.1-0.3-0.1-0.5-0.1-0.8c0-0.4,0.1-0.8,0.3-1.2
			s0.4-0.6,0.7-0.8c-0.3,0-0.6-0.1-0.7-0.3c-0.1-0.2-0.2-0.4-0.2-0.6s0-0.4,0.1-0.5s0.2-0.2,0.3-0.3c0.1-0.1,0.3-0.1,0.5-0.2
			s0.3-0.1,0.5-0.1l0,0c-0.3-0.1-0.6-0.4-0.8-0.7s-0.3-0.8-0.3-1.3c0-0.4,0.1-0.8,0.2-1.1c0.2-0.3,0.3-0.5,0.6-0.7
			c0.2-0.2,0.5-0.3,0.8-0.4s0.6-0.1,0.9-0.1c0.2,0,0.4,0,0.6,0s0.4,0.1,0.6,0.1h2.1v0.3L259.4,91.2L259.4,91.2z M256.3,97.1
			c-0.4,0.2-0.7,0.4-0.9,0.8s-0.3,0.7-0.3,1c0,0.2,0,0.5,0.1,0.7s0.2,0.4,0.4,0.6s0.4,0.3,0.8,0.4c0.3,0.1,0.7,0.2,1.2,0.2
			c0.4,0,0.7,0,1-0.1s0.6-0.2,0.8-0.4c0.2-0.2,0.4-0.4,0.6-0.6c0.1-0.2,0.2-0.5,0.2-0.8c0-0.2,0-0.4-0.1-0.6c0-0.2-0.1-0.4-0.3-0.5
			c-0.1-0.2-0.4-0.3-0.6-0.4c-0.3-0.1-0.6-0.2-1.1-0.2L256.3,97.1L256.3,97.1z M259.9,93c0-0.2,0-0.4-0.1-0.7
			c-0.1-0.2-0.2-0.5-0.4-0.7c-0.2-0.2-0.4-0.4-0.7-0.5c-0.3-0.1-0.7-0.2-1.1-0.2c-0.7,0-1.3,0.2-1.6,0.6c-0.4,0.4-0.6,0.9-0.6,1.5
			c0,0.3,0.1,0.6,0.2,0.8c0.1,0.2,0.2,0.5,0.4,0.6c0.2,0.2,0.4,0.3,0.6,0.4c0.2,0.1,0.5,0.1,0.8,0.1c0.7,0,1.3-0.2,1.8-0.5
			C259.7,94.2,259.9,93.7,259.9,93z"/>
		<path class="st0" d="M272.8,89c0,0.1,0,0.2-0.1,0.2c-0.1,0.1-0.2,0.1-0.3,0.1c-0.1,0-0.2,0-0.2-0.1c-0.1-0.1-0.1-0.2-0.1-0.2
			c0-0.1,0-0.2,0.1-0.3c0.1-0.1,0.1-0.1,0.2-0.1s0.2,0,0.3,0.1S272.8,88.8,272.8,89z M272.3,97.8v-7.1h0.3v7.1H272.3z"/>
		<path class="st0" d="M284.9,91.5c0.5-0.3,1-0.5,1.5-0.6s0.9-0.2,1.2-0.2c0.4,0,0.8,0.1,1,0.2s0.4,0.3,0.6,0.5
			c0.1,0.2,0.2,0.4,0.2,0.6s0,0.4,0,0.7V98H289v-5c0-0.3,0-0.6,0-0.8s-0.1-0.5-0.2-0.6c-0.1-0.2-0.2-0.3-0.5-0.4
			c-0.2-0.1-0.5-0.1-0.9-0.1c-0.2,0-0.4,0-0.7,0.1c-0.2,0.1-0.5,0.1-0.7,0.2s-0.5,0.2-0.7,0.3c-0.2,0.1-0.4,0.2-0.6,0.3v6h-0.4v-7.1
			h0.4c0,0.1,0,0.2,0,0.4C284.8,91.2,284.8,91.3,284.9,91.5L284.9,91.5z"/>
		<path class="st0" d="M305.4,91.2c0.3,0.2,0.5,0.5,0.6,0.8s0.2,0.7,0.2,1c0,0.7-0.2,1.3-0.7,1.7c-0.5,0.4-1.2,0.6-2,0.6h-0.9
			c-0.2,0-0.4,0-0.6,0s-0.3,0-0.5,0.1c-0.1,0.1-0.2,0.1-0.3,0.2c-0.1,0.1-0.1,0.2-0.1,0.4c0,0.4,0.3,0.7,1,0.7h2
			c0.9,0,1.5,0.2,1.9,0.5s0.5,0.8,0.5,1.4c0,0.4-0.1,0.7-0.2,1s-0.4,0.5-0.7,0.7c-0.3,0.2-0.6,0.3-1,0.4s-0.8,0.2-1.2,0.2
			c-0.5,0-1-0.1-1.3-0.2c-0.4-0.1-0.6-0.3-0.9-0.5c-0.2-0.2-0.4-0.4-0.5-0.7c-0.1-0.3-0.1-0.5-0.1-0.8c0-0.4,0.1-0.8,0.3-1.2
			s0.4-0.6,0.7-0.8c-0.3,0-0.6-0.1-0.7-0.3c-0.1-0.2-0.2-0.4-0.2-0.6s0-0.4,0.1-0.5s0.2-0.2,0.3-0.3c0.1-0.1,0.3-0.1,0.5-0.2
			s0.3-0.1,0.5-0.1l0,0c-0.3-0.1-0.6-0.4-0.8-0.7s-0.3-0.8-0.3-1.3c0-0.4,0.1-0.8,0.2-1.1c0.2-0.3,0.3-0.5,0.6-0.7
			c0.2-0.2,0.5-0.3,0.8-0.4s0.6-0.1,0.9-0.1c0.2,0,0.4,0,0.6,0s0.4,0.1,0.6,0.1h2.1v0.3L305.4,91.2L305.4,91.2z M302.3,97.1
			c-0.4,0.2-0.7,0.4-0.9,0.8c-0.2,0.4-0.3,0.7-0.3,1c0,0.2,0,0.5,0.1,0.7s0.2,0.4,0.4,0.6c0.2,0.2,0.4,0.3,0.8,0.4
			c0.3,0.1,0.7,0.2,1.2,0.2c0.4,0,0.7,0,1-0.1s0.6-0.2,0.8-0.4c0.2-0.2,0.4-0.4,0.6-0.6c0.1-0.2,0.2-0.5,0.2-0.8
			c0-0.2,0-0.4-0.1-0.6c0-0.2-0.1-0.4-0.3-0.5c-0.1-0.2-0.4-0.3-0.6-0.4c-0.3-0.1-0.6-0.2-1.1-0.2L302.3,97.1L302.3,97.1z M305.9,93
			c0-0.2,0-0.4-0.1-0.7c-0.1-0.2-0.2-0.5-0.4-0.7c-0.2-0.2-0.4-0.4-0.7-0.5c-0.3-0.1-0.7-0.2-1.1-0.2c-0.7,0-1.3,0.2-1.6,0.6
			c-0.4,0.4-0.6,0.9-0.6,1.5c0,0.3,0.1,0.6,0.2,0.8c0.1,0.2,0.2,0.5,0.4,0.6c0.2,0.2,0.4,0.3,0.6,0.4s0.5,0.1,0.8,0.1
			c0.7,0,1.3-0.2,1.8-0.5C305.7,94.2,305.9,93.7,305.9,93z"/>
	</g>
</g>
</svg>
